<svg xmlns="http://www.w3.org/2000/svg" viewBox="0 0 100 100"><defs><style>.cls-1{fill:#ff6300;fill-rule:evenodd;}.cls-2{fill:#fff;}</style></defs><title>Artboard 11</title><g id="Hudl"><g id="hudl-app-icon-cropped"><path id="Background" class="cls-1" d="M22.49,0h55C85.33,0,88.17.81,91,2.34A16,16,0,0,1,97.66,9c1.53,2.85,2.34,5.69,2.34,13.51v55c0,7.82-.81,10.66-2.34,13.51A16,16,0,0,1,91,97.66C88.17,99.19,85.33,100,77.51,100h-55c-7.82,0-10.66-.81-13.51-2.34A16,16,0,0,1,2.34,91C.81,88.17,0,85.33,0,77.51v-55C0,14.67.81,11.83,2.34,9A16,16,0,0,1,9,2.34C11.83.81,14.67,0,22.49,0Z"/><path id="DUDES" class="cls-2" d="M50.11,84.86a10.87,10.87,0,0,1-10.58-8.33.24.24,0,0,0-.12-.14,28.4,28.4,0,0,1-4.13-2.06.28.28,0,0,1-.09-.1,28.78,28.78,0,0,1-1.43-15.69.21.21,0,0,1,.14-.16H34a.18.18,0,0,1,.16.06,28.4,28.4,0,0,0,9.46,6.74l.08,0a.19.19,0,0,0,.12,0c.32-.23.62-.42.92-.6a10.85,10.85,0,0,1,14,2.74.21.21,0,0,0,.16.08h0A28.94,28.94,0,0,0,77,57.49a.17.17,0,0,1,.15-.07l.1,0a.22.22,0,0,1,.1.24A28.66,28.66,0,0,1,60.78,76.35a.19.19,0,0,0-.12.14,10.85,10.85,0,0,1-10.55,8.37ZM29.83,70a.2.2,0,0,1-.15-.06A28.23,28.23,0,0,1,21.56,50a28.77,28.77,0,0,1,.26-3.8.18.18,0,0,0-.06-.17,10.86,10.86,0,0,1,10.5-18.34h.05a.21.21,0,0,0,.13-.05A28.21,28.21,0,0,1,36.3,25.1l.1,0a28.79,28.79,0,0,1,14.37,6.63.21.21,0,0,1-.09.35,28.5,28.5,0,0,0-10.59,4.83.21.21,0,0,0-.09.18,10.71,10.71,0,0,1,.06,1.1A10.91,10.91,0,0,1,30.71,48.9a.2.2,0,0,0-.16.12c-.38.93-.72,1.9-1,2.87A29,29,0,0,0,30,69.69a.2.2,0,0,1-.09.24A.19.19,0,0,1,29.83,70ZM65.42,59.84a.17.17,0,0,1-.14-.06.19.19,0,0,1-.06-.2,28.5,28.5,0,0,0,1.13-11.42.19.19,0,0,0-.11-.16,10.86,10.86,0,0,1-5.49-14,.24.24,0,0,0,0-.2,31.22,31.22,0,0,0-2.09-2.45A29.05,29.05,0,0,0,43,22.88a.19.19,0,0,1-.16-.19.19.19,0,0,1,.15-.2,28.21,28.21,0,0,1,24.59,5.2.2.2,0,0,0,.13,0h.06a10.47,10.47,0,0,1,3-.44,10.85,10.85,0,0,1,7.46,18.77.2.2,0,0,0-.06.18,29,29,0,0,1,.26,3.8c0,.12,0,.23,0,.35v.22a.17.17,0,0,1,0,.12,28.68,28.68,0,0,1-12.88,9.11Z"/></g></g></svg>