<?xml version="1.0" encoding="utf-8"?>
<!-- Generator: Adobe Illustrator 26.3.1, SVG Export Plug-In . SVG Version: 6.00 Build 0)  -->
<svg version="1.1" id="Layer_1" xmlns="http://www.w3.org/2000/svg" xmlns:xlink="http://www.w3.org/1999/xlink" x="0px" y="0px"
	 viewBox="0 0 87.2 28.5" style="enable-background:new 0 0 87.2 28.5;" xml:space="preserve">
<g>
	<path d="M14.5,4.6c-1.8-1.5-4-2.6-6.4-3C7.5,1.9,6.9,2.3,6.3,2.8c0,0-0.1,0-0.1,0C4.1,2.2,1.8,3.1,0.7,5C-0.5,7,0,9.5,1.5,11
		c0,0,0,0,0,0.1c-0.1,0.6-0.1,1.2-0.1,1.8c0,3.5,1.4,6.6,3.7,9c0.1,0.1,0.2,0,0.2-0.1c-0.5-1.4-0.8-2.8-0.8-4.4c0-1.8,0.4-3.4,1-4.9
		c0,0,0-0.1,0.1-0.1c1.4-0.2,2.8-1,3.6-2.4C9.7,9,9.8,8,9.7,7c0,0,0-0.1,0-0.1c1.4-1,3-1.7,4.7-2.1C14.6,4.8,14.6,4.6,14.5,4.6z"/>
	<path d="M6.9,16.7c-0.5,2.3-0.3,4.8,0.6,7.1c0.6,0.4,1.3,0.7,1.9,0.9c0,0,0,0,0.1,0.1c0.5,2.1,2.4,3.7,4.7,3.7
		c2.3,0,4.2-1.6,4.7-3.7c0,0,0-0.1,0.1-0.1c0.5-0.2,1.1-0.5,1.6-0.8c3-1.7,5.1-4.5,5.9-7.6c0-0.1-0.1-0.2-0.2-0.1
		c-0.9,1.1-2.1,2.1-3.4,2.9c-1.5,0.9-3.1,1.4-4.8,1.6c0,0-0.1,0-0.1,0c-0.9-1.1-2.3-1.9-3.8-1.9c-1.1,0-2,0.3-2.8,0.9
		c0,0-0.1,0-0.1,0c-1.6-0.7-3-1.7-4.2-3C7.1,16.6,7,16.6,6.9,16.7z"/>
	<path d="M21.2,17.2c2.2-0.8,4.3-2.2,5.8-4.1c0-0.7,0-1.4-0.1-2.1c0,0,0-0.1,0-0.1c1.6-1.5,2-4,0.8-5.9c-1.1-2-3.5-2.8-5.6-2.2
		c0,0-0.1,0-0.1,0c-0.5-0.4-1-0.7-1.5-1c-3-1.7-6.5-2.1-9.6-1.3c-0.1,0-0.1,0.2,0,0.2c1.4,0.3,2.8,0.8,4.2,1.5
		c1.5,0.9,2.8,2,3.8,3.3c0,0,0,0.1,0,0.1c-0.5,1.3-0.5,2.9,0.3,4.3c0.5,0.9,1.3,1.6,2.2,2c0,0,0.1,0,0.1,0.1c0.2,1.7,0,3.4-0.5,5.1
		C21.1,17.2,21.1,17.2,21.2,17.2z"/>
</g>
<g>
	<path d="M40.8,24.7v-9.6c0-1-0.5-1.6-1.7-1.6c-0.4,0-0.8,0.1-1.2,0.2v11h-5.5V2.6H38v7.2c0.8-0.3,1.7-0.5,2.7-0.5
		c3.7,0,5.6,1.9,5.6,5.2v10.2H40.8z"/>
	<path d="M55.6,25.1c-4.7,0-7-1.7-7-5.9V9.5h5.5v9.7c0,1,0.5,1.4,1.5,1.4c0.5,0,0.9-0.1,1.2-0.1v-11h5.5v14.4
		C60.8,24.6,58.1,25.1,55.6,25.1z"/>
	<path d="M72.5,25.1c-5.2,0-8-2.8-8-8c0-4.7,2.4-7.7,7.2-7.7c0.5,0,1.2,0.1,1.6,0.2v-7h5.5v21.4C77.5,24.6,75.2,25.1,72.5,25.1z
		 M73.3,13.6c-0.2-0.1-0.6-0.2-1-0.2c-1.5,0-2.3,1.4-2.3,3.6c0,2.6,0.8,3.8,2.4,3.8c0.4,0,0.7,0,0.9-0.1V13.6z"/>
	<path d="M81.6,24.7V2.6h5.5v22.1H81.6z"/>
</g>
</svg>
