<?xml version="1.0" encoding="utf-8"?>
<!-- Generator: Adobe Illustrator 26.3.1, SVG Export Plug-In . SVG Version: 6.00 Build 0)  -->
<svg version="1.1" id="Layer_1" xmlns="http://www.w3.org/2000/svg" xmlns:xlink="http://www.w3.org/1999/xlink" x="0px" y="0px"
	 viewBox="0 0 100 99.7" style="enable-background:new 0 0 100 99.7;" xml:space="preserve">
<style type="text/css">
	.st0{fill:#FF6300;}
</style>
<g>
	<path class="st0" d="M51.1,16.2c-6.2-5.4-13.9-9.1-22.5-10.4c-2.2,1.2-4.3,2.6-6.2,4.1C22.3,10,22.2,10,22.1,10
		c-7.3-2.1-15.4,0.9-19.4,7.8c-4,6.9-2.5,15.4,2.9,20.7c0.1,0.1,0.1,0.2,0.1,0.3c-0.3,2-0.4,4.1-0.4,6.2c0,12.1,4.9,23.1,12.8,31.2
		c0.3,0.3,0.8,0,0.6-0.4c-1.7-4.8-2.7-9.9-2.7-15.3c0-6.1,1.3-11.9,3.5-17.2c0-0.1,0.1-0.2,0.3-0.2c5-0.7,9.7-3.5,12.4-8.3
		c1.8-3.2,2.5-6.7,2.1-10.1c0-0.1,0-0.2,0.1-0.3c4.8-3.5,10.4-6.1,16.4-7.4C51.2,16.8,51.3,16.4,51.1,16.2z"/>
	<path class="st0" d="M24.6,58.4C23,66.5,23.7,75,26.8,83c2.1,1.3,4.4,2.4,6.7,3.3c0.1,0,0.2,0.1,0.2,0.2
		c1.9,7.4,8.5,12.8,16.4,12.8c8,0,14.6-5.5,16.5-12.9c0-0.1,0.1-0.2,0.2-0.2c1.9-0.8,3.8-1.7,5.6-2.7C82.9,77.4,90,67.7,93.1,56.9
		c0.1-0.4-0.4-0.7-0.7-0.3c-3.3,3.9-7.3,7.3-11.9,10c-5.3,3-11,4.9-16.7,5.6c-0.1,0-0.2,0-0.3-0.1c-3.1-4-7.9-6.6-13.4-6.6
		c-3.7,0-7.1,1.2-9.9,3.2c-0.1,0.1-0.2,0.1-0.3,0c-5.4-2.4-10.4-5.9-14.6-10.4C25.1,57.9,24.7,58.1,24.6,58.4z"/>
	<path class="st0" d="M74.5,60.2c7.8-2.7,14.9-7.5,20.3-14.2c0.1-2.5-0.1-5-0.5-7.4c0-0.1,0-0.2,0.1-0.3c5.5-5.3,6.9-13.8,2.9-20.6
		c-4-6.9-12.1-9.9-19.4-7.8c-0.1,0-0.2,0-0.3-0.1c-1.6-1.3-3.3-2.4-5.2-3.5C61.8,0.2,49.9-1.1,38.9,1.7c-0.4,0.1-0.4,0.7,0,0.8
		c5,0.9,9.9,2.6,14.6,5.3c5.3,3,9.7,7,13.2,11.6c0.1,0.1,0.1,0.2,0,0.3c-1.9,4.7-1.8,10.1,1,14.9c1.8,3.2,4.6,5.5,7.7,6.9
		c0.1,0,0.2,0.1,0.2,0.3c0.6,5.9,0.1,12-1.8,17.9C73.8,60,74.1,60.3,74.5,60.2z"/>
</g>
</svg>
